STARTFONT 2.1
COMMENT $Xorg: olgl14.bdf,v 1.3 2000/08/18 15:17:40 xorgcvs Exp $
COMMENT 
COMMENT  Copyright 1989 by Sun Microsystems, Inc. Mountain View, CA.
COMMENT 
COMMENT  Permission to use, copy, modify, and distribute this software and
COMMENT  its documentation for any purpose and without fee is hereby granted,
COMMENT  provided that the above copyright notices appear in all copies and
COMMENT  that both those copyright notices and this permission notice appear
COMMENT  in supporting documentation, and that the name of Sun Microsystems
COMMENT  not be used in advertising or publicity pertaining to distribution
COMMENT  of the software without specific, written prior permission.  Sun
COMMENT  Microsystems make no representations about the suitability of this
COMMENT  software for any purpose.  It is provided "as is" without express or
COMMENT  implied warranty.
COMMENT 
COMMENT  SUN MICROSYSTEMS DISCLAIM ALL WARRANTIES WITH REGARD TO THIS
COMMENT  SOFTWARE, INCLUDING ALL IMPLIED WARRANTIES OF MERCHANTABILITY AND
COMMENT  FITNESS, IN NO EVENT SHALL SUN MICROSYSTEMS BE LIABLE FOR ANY
COMMENT  SPECIAL, INDIRECT OR CONSEQUENTIAL DAMAGES OR ANY DAMAGES WHATSOEVER
COMMENT  RESULTING FROM LOSS OF USE, DATA OR PROFITS, WHETHER IN AN ACTION OF
COMMENT  CONTRACT, NEGLIGENCE OR OTHER TORTIOUS ACTION, ARISING OUT OF OR IN
COMMENT  CONNECTION WITH THE USE OR PERFORMANCE OF THIS SOFTWARE.
COMMENT 
COMMENT  ** Open Look Glyph Font, 14-pt **
FONT -Sun-OPEN LOOK glyph-----14-140-75-75-P-128-SunOLglyph-1
SIZE 14 78 78
FONTBOUNDINGBOX 53 53 0 -53
STARTPROPERTIES 18
COMMENT Begin LogicalFontDescription
FONTNAME_REGISTRY ""
FAMILY_NAME "OPEN LOOK glyph"
FOUNDRY "Sun"
WEIGHT_NAME ""
SETWIDTH_NAME ""
SLANT ""
ADD_STYLE_NAME ""
PIXEL_SIZE 14
POINT_SIZE 140
RESOLUTION_X 75
RESOLUTION_Y 75
SPACING "P"
AVERAGE_WIDTH 128
CHARSET_REGISTRY "SunOLglyph"
CHARSET_ENCODING "1"
COMMENT END LogicalFontDescription
FACE_NAME "OLGlyph"
FONT_DESCENT 53
FONT_ASCENT 0
ENDPROPERTIES
CHARS 234
STARTCHAR VerticalScrollbarEle
ENCODING 1
SWIDTH 96 0
DWIDTH 17 0
BBX 17 53 0 -53
BITMAP
7fff00
800180
800180
800180
800180
818180
83c180
87e180
8ff180
9ff980
9ff980
800180
800180
800180
800180
800180
800180
ffff80
800180
800180
800180
800180
800180
800180
800180
800180
800180
800180
800180
800180
800180
800180
800180
800180
ffff80
800180
800180
800180
800180
800180
800180
9ff980
9ff980
8ff180
87e180
83c180
818180
800180
800180
800180
800180
ffff80
7fff00
ENDCHAR
STARTCHAR VerticalScrollbarEle
ENCODING 2
SWIDTH 96 0
DWIDTH 17 0
BBX 17 53 0 -53
BITMAP
7fff00
ffff80
ffff80
ffff80
ffff80
fe7f80
fc3f80
f81f80
f00f80
e00780
e00780
ffff80
ffff80
ffff80
ffff80
ffff80
ffff80
ffff80
800180
800180
800180
800180
800180
800180
800180
800180
800180
800180
800180
800180
800180
800180
800180
800180
ffff80
800180
800180
800180
800180
800180
800180
9ff980
9ff980
8ff180
87e180
83c180
818180
800180
800180
800180
800180
ffff80
7fff00
ENDCHAR
STARTCHAR VerticalScrollbarEle
ENCODING 3
SWIDTH 96 0
DWIDTH 17 0
BBX 17 53 0 -53
BITMAP
7fff00
800180
800180
800180
800180
818180
83c180
87e180
8ff180
9ff980
9ff980
800180
800180
800180
800180
800180
800180
ffff80
ffff80
ffff80
ffff80
ffff80
ffff80
ffff80
ffff80
ffff80
ffff80
ffff80
ffff80
ffff80
ffff80
ffff80
ffff80
ffff80
ffff80
800180
800180
800180
800180
800180
800180
9ff980
9ff980
8ff180
87e180
83c180
818180
800180
800180
800180
800180
ffff80
7fff00
ENDCHAR
STARTCHAR VerticalScrollbarEle
ENCODING 4
SWIDTH 96 0
DWIDTH 17 0
BBX 17 53 0 -53
BITMAP
7fff00
800180
800180
800180
800180
818180
83c180
87e180
8ff180
9ff980
9ff980
800180
800180
800180
800180
800180
800180
ffff80
800180
800180
800180
800180
800180
800180
800180
800180
800180
800180
800180
800180
800180
800180
800180
800180
ffff80
ffff80
ffff80
ffff80
ffff80
ffff80
ffff80
e00780
e00780
f00f80
f81f80
fc3f80
fe7f80
ffff80
ffff80
ffff80
ffff80
ffff80
7fff00
ENDCHAR
STARTCHAR VerticalScrollbarRed
ENCODING 5
SWIDTH 96 0
DWIDTH 17 0
BBX 17 36 0 -36
BITMAP
7fff00
800180
800180
800180
800180
818180
83c180
87e180
8ff180
9ff980
9ff980
800180
800180
800180
800180
800180
800180
ffff80
800180
800180
800180
800180
800180
800180
9ff980
9ff980
8ff180
87e180
83c180
818180
800180
800180
800180
800180
ffff80
7fff00
ENDCHAR
STARTCHAR VerticalScrollbarRed
ENCODING 6
SWIDTH 96 0
DWIDTH 17 0
BBX 17 36 0 -36
BITMAP
7fff00
ffff80
ffff80
ffff80
ffff80
fe7f80
fc3f80
f81f80
f00f80
e00780
e00780
ffff80
ffff80
ffff80
ffff80
ffff80
ffff80
ffff80
800180
800180
800180
800180
800180
800180
9ff980
9ff980
8ff180
87e180
83c180
818180
800180
800180
800180
800180
ffff80
7fff00
ENDCHAR
STARTCHAR VerticalScrollbarRed
ENCODING 7
SWIDTH 96 0
DWIDTH 17 0
BBX 17 36 0 -36
BITMAP
7fff00
800180
800180
800180
800180
818180
83c180
87e180
8ff180
9ff980
9ff980
800180
800180
800180
800180
800180
800180
ffff80
ffff80
ffff80
ffff80
ffff80
ffff80
ffff80
e00780
e00780
f00f80
f81f80
fc3f80
fe7f80
ffff80
ffff80
ffff80
ffff80
ffff80
7fff00
ENDCHAR
STARTCHAR VerticalScrollbarAnc
ENCODING 8
SWIDTH 96 0
DWIDTH 17 0
BBX 17 7 0 -7
BITMAP
ffff80
800080
800080
800080
800080
800080
ffff80
ENDCHAR
STARTCHAR VerticalScrollbarAnc
ENCODING 9
SWIDTH 96 0
DWIDTH 17 0
BBX 17 7 0 -7
BITMAP
ffff80
ffff80
ffff80
ffff80
ffff80
ffff80
ffff80
ENDCHAR
STARTCHAR HorizontalScrollbarE
ENCODING 10
SWIDTH 96 0
DWIDTH 53 0
BBX 53 17 0 -17
BITMAP
7ffffffffffff0
80004000200018
80004000200018
80604000206018
80e04000207018
81e04000207818
83e04000207c18
87e04000207e18
87e04000207e18
83e04000207c18
81e04000207818
80e04000207018
80604000206018
80004000200018
80004000200018
fffffffffffff8
7ffffffffffff0
ENDCHAR
STARTCHAR HorizontalScrollbarE
ENCODING 11
SWIDTH 96 0
DWIDTH 53 0
BBX 53 17 0 -17
BITMAP
7ffffffffffff0
ffffc000200018
ffffc000200018
ff9fc000206018
ff1fc000207018
fe1fc000207818
fc1fc000207c18
f81fc000207e18
f81fc000207e18
fc1fc000207c18
fe1fc000207818
ff1fc000207018
ff9fc000206018
ffffc000200018
ffffc000200018
fffffffffffff8
7ffffffffffff0
ENDCHAR
STARTCHAR HorizontalScrollbarE
ENCODING 12
SWIDTH 96 0
DWIDTH 53 0
BBX 53 17 0 -17
BITMAP
7ffffffffffff0
80007fffe00018
80007fffe00018
80607fffe06018
80e07fffe07018
81e07fffe07818
83e07fffe07c18
87e07fffe07e18
87e07fffe07e18
83e07fffe07c18
81e07fffe07818
80e07fffe07018
80607fffe06018
80007fffe00018
80007fffe00018
fffffffffffff8
7ffffffffffff0
ENDCHAR
STARTCHAR HorizontalScrollbarE
ENCODING 13
SWIDTH 96 0
DWIDTH 53 0
BBX 53 17 0 -17
BITMAP
7ffffffffffff0
800040003ffff8
800040003ffff8
806040003f9ff8
80e040003f8ff8
81e040003f87f8
83e040003f83f8
87e040003f81f8
87e040003f81f8
83e040003f83f8
81e040003f87f8
80e040003f8ff8
806040003f9ff8
800040003ffff8
800040003ffff8
fffffffffffff8
7ffffffffffff0
ENDCHAR
STARTCHAR HorizontalScrollbarR
ENCODING 14
SWIDTH 96 0
DWIDTH 36 0
BBX 36 17 0 -17
BITMAP
7fffffffe0
8000400030
8000400030
806040c030
80e040e030
81e040f030
83e040f830
87e040fc30
87e040fc30
83e040f830
81e040f030
80e040e030
806040c030
8000400030
8000400030
fffffffff0
7fffffffe0
ENDCHAR
STARTCHAR HorizontalScrollbarR
ENCODING 15
SWIDTH 96 0
DWIDTH 36 0
BBX 36 17 0 -17
BITMAP
7fffffffe0
ffffc00030
ffffc00030
ff9fc0c030
ff1fc0e030
fe1fc0f030
fc1fc0f830
f81fc0fc30
f81fc0fc30
fc1fc0f830
fe1fc0f030
ff1fc0e030
ff9fc0c030
ffffc00030
ffffc00030
fffffffff0
7fffffffe0
ENDCHAR
STARTCHAR HorizontalScrollbarR
ENCODING 16
SWIDTH 96 0
DWIDTH 36 0
BBX 36 17 0 -17
BITMAP
7fffffffe0
80007ffff0
80007ffff0
80607f3ff0
80e07f1ff0
81e07f0ff0
83e07f07f0
87e07f03f0
87e07f03f0
83e07f07f0
81e07f0ff0
80e07f1ff0
80607f3ff0
80007ffff0
80007ffff0
fffffffff0
7fffffffe0
ENDCHAR
STARTCHAR HorizontalScrollbarA
ENCODING 17
SWIDTH 96 0
DWIDTH 7 0
BBX 7 17 0 -17
BITMAP
fe
82
82
82
82
82
82
82
82
82
82
82
82
82
82
82
fe
ENDCHAR
STARTCHAR HorizontalScrollbarA
ENCODING 18
SWIDTH 96 0
DWIDTH 7 0
BBX 7 17 0 -17
BITMAP
fe
fe
fe
fe
fe
fe
fe
fe
fe
fe
fe
fe
fe
fe
fe
fe
fe
ENDCHAR
STARTCHAR pupinout
ENCODING 19
SWIDTH 96 0
DWIDTH 29 0
BBX 29 14 0 -14
BITMAP
0001c000
00012030
00012048
00013fc8
00012048
00012048
07ff2048
03ff2048
00012048
00013fc8
60013ff8
9001e078
9001e030
6001c000
ENDCHAR
STARTCHAR pupinin
ENCODING 20
SWIDTH 42 0
DWIDTH 15 0
BBX 15 15 0 -15
BITMAP
00e0
0718
1c04
2404
4802
4802
8802
8c06
8404
c71c
43f8
60f8
7870
ffe0
c000
ENDCHAR
STARTCHAR defpupinout
ENCODING 21
SWIDTH 96 0
DWIDTH 29 0
BBX 29 17 0 -17
BITMAP
0001c000
00012030
00012048
00013fc8
00012048
00012048
07ff2048
03ff2048
00012048
3c013fc8
42013ff8
9901e078
a501e030
a501c000
99000000
42000000
3c000000
ENDCHAR
STARTCHAR abbmenubu
ENCODING 22
SWIDTH 96 0
DWIDTH 18 0
BBX 18 17 0 -17
BITMAP
7fff00
800080
8000c0
8000c0
8ff8c0
8808c0
8410c0
8410c0
8220c0
8220c0
8140c0
8140c0
8080c0
8000c0
8000c0
7fffc0
3fff80
ENDCHAR
STARTCHAR abbmenubu
ENCODING 23
SWIDTH 96 0
DWIDTH 18 0
BBX 18 17 0 -17
BITMAP
7fff00
800080
bffec0
bffec0
b006c0
b7f6c0
bbeec0
bbeec0
bddec0
bddec0
bebec0
bebec0
bf7ec0
bffec0
8000c0
7fffc0
3fff80
ENDCHAR
STARTCHAR buttonupleft
ENCODING 24
SWIDTH 96 0
DWIDTH 11 0
BBX 11 22 0 -22
BITMAP
01e0
0600
0800
1000
2000
4000
4000
8000
8000
8000
8000
8000
8000
8000
4000
4000
2000
1000
0000
0000
0000
0000
ENDCHAR
STARTCHAR buttonlowleft
ENCODING 25
SWIDTH 96 0
DWIDTH 11 0
BBX 11 21 0 -21
BITMAP
0000
0000
0000
0000
0000
0000
0000
0000
0000
0000
0000
0000
0000
0000
0000
0000
0000
0000
0800
0600
01e0
ENDCHAR
STARTCHAR buttonupleft
ENCODING 26
SWIDTH 96 0
DWIDTH 11 0
BBX 11 20 0 -20
BITMAP
0000
01e0
07e0
0fe0
1fe0
3fe0
3fe0
7fe0
7fe0
7fe0
7fe0
7fe0
7fe0
7fe0
3fe0
3fe0
1fe0
0fe0
07e0
01e0
ENDCHAR
STARTCHAR buttonupleft
ENCODING 27
SWIDTH 96 0
DWIDTH 11 0
BBX 11 21 0 -21
BITMAP
0000
0000
0000
0100
0080
0040
0040
0020
0020
0020
0020
0020
0020
0020
0040
0040
0080
0100
0200
0c00
f000
ENDCHAR
STARTCHAR buttonUR
ENCODING 28
SWIDTH 96 0
DWIDTH 7 0
BBX 11 21 0 -21
BITMAP
f000
0c00
0200
0000
0000
0000
0000
0000
0000
0000
0000
0000
0000
0000
0000
0000
0000
0000
0000
0000
0000
ENDCHAR
STARTCHAR buttonupleft,,.
ENCODING 29
SWIDTH 96 0
DWIDTH 11 0
BBX 11 20 0 -20
BITMAP
0000
f000
fc00
fe00
ff00
ff80
ff80
ffc0
ffc0
ffc0
ffc0
ffc0
ffc0
ffc0
ff80
ff80
ff00
fe00
fc00
f000
ENDCHAR
STARTCHAR butTop-1
ENCODING 30
SWIDTH 96 0
DWIDTH 1 0
BBX 1 21 0 -21
BITMAP
80
00
00
00
00
00
00
00
00
00
00
00
00
00
00
00
00
00
00
00
00
ENDCHAR
STARTCHAR butTop-2
ENCODING 31
SWIDTH 96 0
DWIDTH 2 0
BBX 2 21 0 -21
BITMAP
c0
00
00
00
00
00
00
00
00
00
00
00
00
00
00
00
00
00
00
00
00
ENDCHAR
STARTCHAR butTop-4
ENCODING 32
SWIDTH 96 0
DWIDTH 4 0
BBX 4 21 0 -21
BITMAP
f0
00
00
00
00
00
00
00
00
00
00
00
00
00
00
00
00
00
00
00
00
ENDCHAR
STARTCHAR buttonlowleft
ENCODING 33
SWIDTH 96 0
DWIDTH 8 0
BBX 8 21 0 -21
BITMAP
ff
00
00
00
00
00
00
00
00
00
00
00
00
00
00
00
00
00
00
00
00
ENDCHAR
STARTCHAR buttonlowleft
ENCODING 34
SWIDTH 96 0
DWIDTH 16 0
BBX 16 21 0 -21
BITMAP
ffff
0000
0000
0000
0000
0000
0000
0000
0000
0000
0000
0000
0000
0000
0000
0000
0000
0000
0000
0000
0000
ENDCHAR
STARTCHAR buttonlowleft
ENCODING 35
SWIDTH 96 0
DWIDTH 1 0
BBX 1 21 0 -21
BITMAP
00
00
00
00
00
00
00
00
00
00
00
00
00
00
00
00
00
00
00
00
80
ENDCHAR
STARTCHAR buttonlowleft
ENCODING 36
SWIDTH 96 0
DWIDTH 2 0
BBX 2 21 0 -21
BITMAP
00
00
00
00
00
00
00
00
00
00
00
00
00
00
00
00
00
00
00
00
c0
ENDCHAR
STARTCHAR buttonlowleft
ENCODING 37
SWIDTH 96 0
DWIDTH 4 0
BBX 4 21 0 -21
BITMAP
00
00
00
00
00
00
00
00
00
00
00
00
00
00
00
00
00
00
00
00
f0
ENDCHAR
STARTCHAR buttonlowleft
ENCODING 38
SWIDTH 96 0
DWIDTH 8 0
BBX 8 21 0 -21
BITMAP
00
00
00
00
00
00
00
00
00
00
00
00
00
00
00
00
00
00
00
00
ff
ENDCHAR
STARTCHAR butBot-16
ENCODING 39
SWIDTH 96 0
DWIDTH 16 0
BBX 16 21 0 -21
BITMAP
0000
0000
0000
0000
0000
0000
0000
0000
0000
0000
0000
0000
0000
0000
0000
0000
0000
0000
0000
0000
ffff
ENDCHAR
STARTCHAR butfill-1
ENCODING 40
SWIDTH 96 0
DWIDTH 1 0
BBX 1 21 0 -21
BITMAP
00
80
80
80
80
80
80
80
80
80
80
80
80
80
80
80
80
80
80
80
00
ENDCHAR
STARTCHAR butfill-2
ENCODING 41
SWIDTH 96 0
DWIDTH 2 0
BBX 2 21 0 -21
BITMAP
00
c0
c0
c0
c0
c0
c0
c0
c0
c0
c0
c0
c0
c0
c0
c0
c0
c0
c0
c0
00
ENDCHAR
STARTCHAR butfill-4
ENCODING 42
SWIDTH 96 0
DWIDTH 4 0
BBX 4 21 0 -21
BITMAP
00
f0
f0
f0
f0
f0
f0
f0
f0
f0
f0
f0
f0
f0
f0
f0
f0
f0
f0
f0
00
ENDCHAR
STARTCHAR butfill-8
ENCODING 43
SWIDTH 96 0
DWIDTH 8 0
BBX 8 21 0 -21
BITMAP
00
ff
ff
ff
ff
ff
ff
ff
ff
ff
ff
ff
ff
ff
ff
ff
ff
ff
ff
ff
00
ENDCHAR
STARTCHAR butFill-16
ENCODING 44
SWIDTH 96 0
DWIDTH 16 0
BBX 16 21 0 -21
BITMAP
0000
ffff
ffff
ffff
ffff
ffff
ffff
ffff
ffff
ffff
ffff
ffff
ffff
ffff
ffff
ffff
ffff
ffff
ffff
ffff
0000
ENDCHAR
STARTCHAR VERTMEMA-UL
ENCODING 45
SWIDTH 96 0
DWIDTH 0 0
BBX 11 11 0 -11
BITMAP
ffe0
8000
4000
4000
2000
2000
1000
1000
0800
0800
0000
ENDCHAR
STARTCHAR VERTMEMA-LR
ENCODING 46
SWIDTH 96 0
DWIDTH 0 0
BBX 11 11 0 -11
BITMAP
0000
0020
0040
0040
0080
0080
0100
0100
0200
0200
0400
ENDCHAR
STARTCHAR VERTMEMA-FILL
ENCODING 47
SWIDTH 96 0
DWIDTH 11 0
BBX 11 11 0 -11
BITMAP
0000
7fc0
3f80
3f80
1f00
1f00
0e00
0e00
0400
0400
0000
ENDCHAR
STARTCHAR HorizMeMa-UL
ENCODING 48
SWIDTH 96 0
DWIDTH 0 0
BBX 10 11 0 -11
BITMAP
c000
b000
8c00
8300
80c0
8000
8000
8000
8000
8000
8000
ENDCHAR
STARTCHAR HorizMeMa-LR
ENCODING 49
SWIDTH 96 0
DWIDTH 0 0
BBX 11 11 0 -11
BITMAP
0000
0000
0000
0000
0000
0020
00c0
0300
0c00
3000
4000
ENDCHAR
STARTCHAR HorizMeMafill
ENCODING 50
SWIDTH 96 0
DWIDTH 11 0
BBX 11 11 0 -11
BITMAP
0000
4000
7000
7c00
7f00
7fc0
7f00
7c00
7000
4000
0000
ENDCHAR
STARTCHAR AbbMenuBu-UL
ENCODING 51
SWIDTH 96 0
DWIDTH 18 0
BBX 18 16 0 -16
BITMAP
7fff80
800000
800000
800000
800000
800000
800000
800000
800000
800000
800000
800000
800000
800000
800000
000000
ENDCHAR
STARTCHAR AbbMenuBu-LR
ENCODING 52
SWIDTH 96 0
DWIDTH 18 0
BBX 18 16 0 -16
BITMAP
000000
000040
000040
000040
000040
000040
000040
000040
000040
000040
000040
000040
000040
000040
000040
7fff80
ENDCHAR
STARTCHAR AbbMenuBu-fill
ENCODING 53
SWIDTH 96 0
DWIDTH 18 0
BBX 18 16 0 -16
BITMAP
000000
7fff80
7fff80
7fff80
7fff80
7fff80
7fff80
7fff80
7fff80
7fff80
7fff80
7fff80
7fff80
7fff80
7fff80
000000
ENDCHAR
STARTCHAR VertSb-UL
ENCODING 54
SWIDTH 96 0
DWIDTH 17 0
BBX 17 53 0 -53
BITMAP
7fff00
800000
800000
800000
800000
800000
800000
800000
800000
800000
800000
800000
800000
800000
800000
800000
800000
fffe00
800000
800000
800000
800000
800000
800000
800000
800000
800000
800000
800000
800000
800000
800000
800000
800000
800000
800000
800000
800000
800000
800000
800000
800000
800000
800000
800000
800000
800000
800000
800000
800000
800000
800000
000000
ENDCHAR
STARTCHAR VertSb-LR
ENCODING 55
SWIDTH 96 0
DWIDTH 17 0
BBX 16 52 0 -52
BITMAP
0000
0001
0001
0001
0001
0181
03c1
07e1
0ff1
1ff9
1ff9
0001
0001
0001
0001
0001
0001
0001
0001
0001
0001
0001
0001
0001
0001
0001
0001
0001
0001
0001
0001
0001
0001
0001
7fff
0001
0001
0001
0001
0001
0001
1ff9
1ff9
0ff1
07e1
03c1
0181
0001
0001
0001
0001
7fff
ENDCHAR
STARTCHAR Vert-sb-top-fill
ENCODING 56
SWIDTH 96 0
DWIDTH 17 0
BBX 17 17 0 -17
BITMAP
800080
7ffe00
7ffe00
7ffe00
7ffe00
7e7e00
7c3e00
781e00
700e00
600600
600600
7ffe00
7ffe00
7ffe00
7ffe00
7ffe00
7ffe00
ENDCHAR
STARTCHAR HoriSb-UL
ENCODING 57
SWIDTH 96 0
DWIDTH 52 0
BBX 53 16 0 -16
BITMAP
7ffffffffffff0
80004000000000
80004000000000
80004000000000
80004000000000
80004000000000
80004000000000
80004000000000
80004000000000
80004000000000
80004000000000
80004000000000
80004000000000
80004000000000
80004000000000
80000000000000
ENDCHAR
STARTCHAR Horiz-LR
ENCODING 58
SWIDTH 96 0
DWIDTH 53 0
BBX 52 16 0 -16
BITMAP
00000000000000
00000000200010
00000000200010
00600000206010
00e00000207010
01e00000207810
03e00000207c10
07e00000207e10
07e00000207e10
03e00000207c10
01e00000207810
00e00000207010
00600000206010
00000000200010
00000000200010
7ffffffffffff0
ENDCHAR
STARTCHAR Vert-sb-bot-fill
ENCODING 59
SWIDTH 96 0
DWIDTH 15 0
BBX 15 17 0 -17
BITMAP
0000
7ffe
7ffe
7ffe
7ffe
7ffe
7ffe
6006
6006
700e
781e
7c3e
7e7e
7ffe
7ffe
7ffe
7ffe
ENDCHAR
STARTCHAR HorSlidContr-UL
ENCODING 60
SWIDTH 96 0
DWIDTH 12 0
BBX 12 17 0 -17
BITMAP
7fe0
8000
8000
8000
8000
8000
8000
8000
8000
8000
8000
8000
8000
8000
8000
8000
0000
ENDCHAR
STARTCHAR HorSlidContr-LR
ENCODING 61
SWIDTH 96 0
DWIDTH 12 0
BBX 12 17 0 -17
BITMAP
0000
0010
0010
0010
0010
0010
0010
0010
0010
0010
0010
0010
0010
0010
0010
0010
7fe0
ENDCHAR
STARTCHAR HorSlidContrfill
ENCODING 62
SWIDTH 96 0
DWIDTH 12 0
BBX 12 17 0 -17
BITMAP
8010
7fe0
7fe0
7fe0
7fe0
7fe0
7fe0
7fe0
7fe0
7fe0
7fe0
7fe0
7fe0
7fe0
7fe0
7fe0
8010
ENDCHAR
STARTCHAR HoriSlid-UL
ENCODING 63
SWIDTH 96 0
DWIDTH 3 0
BBX 3 6 0 -6
BITMAP
60
80
80
80
80
00
ENDCHAR
STARTCHAR HoriSlid-LL
ENCODING 64
SWIDTH 96 0
DWIDTH 3 0
BBX 3 6 0 -6
BITMAP
00
00
00
00
00
60
ENDCHAR
STARTCHAR HorizSlider-UR
ENCODING 65
SWIDTH 96 0
DWIDTH 3 0
BBX 3 6 0 -6
BITMAP
c0
00
00
00
00
00
ENDCHAR
STARTCHAR HoriSlid-LR
ENCODING 66
SWIDTH 96 0
DWIDTH 3 0
BBX 3 6 0 -6
BITMAP
00
20
20
20
20
c0
ENDCHAR
STARTCHAR HoriSlidBot-1
ENCODING 67
SWIDTH 96 0
DWIDTH 1 0
BBX 1 6 0 -6
BITMAP
00
00
00
00
00
80
ENDCHAR
STARTCHAR HoriSlidBot-2
ENCODING 68
SWIDTH 96 0
DWIDTH 2 0
BBX 2 6 0 -6
BITMAP
00
00
00
00
00
c0
ENDCHAR
STARTCHAR HoriSlidBot-4
ENCODING 69
SWIDTH 96 0
DWIDTH 4 0
BBX 4 6 0 -6
BITMAP
00
00
00
00
00
f0
ENDCHAR
STARTCHAR HoriSlidBot-8
ENCODING 70
SWIDTH 96 0
DWIDTH 8 0
BBX 8 6 0 -6
BITMAP
00
00
00
00
00
ff
ENDCHAR
STARTCHAR HoriSlidBot-16
ENCODING 71
SWIDTH 96 0
DWIDTH 16 0
BBX 16 6 0 -6
BITMAP
0000
0000
0000
0000
0000
ffff
ENDCHAR
STARTCHAR HoriSlidFill-1
ENCODING 72
SWIDTH 96 0
DWIDTH 1 0
BBX 1 6 0 -6
BITMAP
00
80
80
80
80
00
ENDCHAR
STARTCHAR HoriSlidFill-2
ENCODING 73
SWIDTH 96 0
DWIDTH 2 0
BBX 2 6 0 -6
BITMAP
00
c0
c0
c0
c0
00
ENDCHAR
STARTCHAR HoriSlidFill-4
ENCODING 74
SWIDTH 96 0
DWIDTH 4 0
BBX 4 6 0 -6
BITMAP
00
f0
f0
f0
f0
00
ENDCHAR
STARTCHAR HoriSlidFill-8
ENCODING 75
SWIDTH 96 0
DWIDTH 8 0
BBX 8 6 0 -6
BITMAP
00
ff
ff
ff
ff
00
ENDCHAR
STARTCHAR HoriSlidFill-16
ENCODING 76
SWIDTH 96 0
DWIDTH 16 0
BBX 16 6 0 -6
BITMAP
0000
ffff
ffff
ffff
ffff
0000
ENDCHAR
STARTCHAR HoriSlidLeftEndcapFi
ENCODING 77
SWIDTH 96 0
DWIDTH 3 0
BBX 3 6 0 -6
BITMAP
00
60
60
60
60
00
ENDCHAR
STARTCHAR HoriSlideRightEndcap
ENCODING 78
SWIDTH 96 0
DWIDTH 2 0
BBX 2 5 0 -5
BITMAP
00
c0
c0
c0
c0
ENDCHAR
STARTCHAR VertSlider-TL
ENCODING 79
SWIDTH 96 0
DWIDTH 6 0
BBX 6 3 0 -3
BITMAP
78
80
80
ENDCHAR
STARTCHAR VertSlider-TR
ENCODING 80
SWIDTH 96 0
DWIDTH 6 0
BBX 6 3 0 -3
BITMAP
00
04
04
ENDCHAR
STARTCHAR VertSlider-Tfill
ENCODING 81
SWIDTH 96 0
DWIDTH 6 0
BBX 6 3 0 -3
BITMAP
00
78
78
ENDCHAR
STARTCHAR VertSlider-LL
ENCODING 82
SWIDTH 96 0
DWIDTH 6 0
BBX 6 3 0 -3
BITMAP
80
80
00
ENDCHAR
STARTCHAR VertSlid-LR
ENCODING 83
SWIDTH 96 0
DWIDTH 6 0
BBX 6 3 0 -3
BITMAP
04
04
78
ENDCHAR
STARTCHAR VertSlidBotFill
ENCODING 84
SWIDTH 96 0
DWIDTH 6 0
BBX 6 3 0 -3
BITMAP
78
78
00
ENDCHAR
STARTCHAR VertSliderControl-TL
ENCODING 85
SWIDTH 96 0
DWIDTH 17 0
BBX 17 12 0 -12
BITMAP
7fff00
800000
800000
800000
800000
800000
800000
800000
800000
800000
800000
000000
ENDCHAR
STARTCHAR VertSliderControl-LR
ENCODING 86
SWIDTH 96 0
DWIDTH 17 0
BBX 17 12 0 -12
BITMAP
000000
000080
000080
000080
000080
000080
000080
000080
000080
000080
000080
7fff00
ENDCHAR
STARTCHAR VertSliderControl-Fi
ENCODING 87
SWIDTH 96 0
DWIDTH 17 0
BBX 17 12 0 -12
BITMAP
800080
7fff00
7fff00
7fff00
7fff00
7fff00
7fff00
7fff00
7fff00
7fff00
7fff00
800080
ENDCHAR
STARTCHAR ULresizeUL
ENCODING 88
SWIDTH 96 0
DWIDTH 12 0
BBX 12 12 0 -12
BITMAP
fff0
8000
8000
8000
8000
8000
8000
8000
8000
8000
8000
8000
ENDCHAR
STARTCHAR ULresizeLR
ENCODING 89
SWIDTH 96 0
DWIDTH 12 0
BBX 12 12 0 -12
BITMAP
0000
0010
0010
0010
0010
07f0
0400
0400
0400
0400
0400
7c00
ENDCHAR
STARTCHAR ULresizeFill
ENCODING 90
SWIDTH 96 0
DWIDTH 12 0
BBX 12 12 0 -12
BITMAP
0000
7fe0
7fe0
7fe0
7fe0
7800
7800
7800
7800
7800
7800
0000
ENDCHAR
STARTCHAR URresizeUL
ENCODING 91
SWIDTH 96 0
DWIDTH 12 0
BBX 12 12 0 -12
BITMAP
fff0
8000
8000
8000
8000
8000
0200
0200
0200
0200
0200
0200
ENDCHAR
STARTCHAR URresizeLR
ENCODING 92
SWIDTH 96 0
DWIDTH 12 0
BBX 12 12 0 -12
BITMAP
0000
0010
0010
0010
0010
7e10
0010
0010
0010
0010
0010
01f0
ENDCHAR
STARTCHAR URresizeFill
ENCODING 93
SWIDTH 96 0
DWIDTH 12 0
BBX 12 12 0 -12
BITMAP
0000
7fe0
7fe0
7fe0
7fe0
01e0
01e0
01e0
01e0
01e0
01e0
0000
ENDCHAR
STARTCHAR LRresizeUL
ENCODING 94
SWIDTH 96 0
DWIDTH 12 0
BBX 12 12 0 -12
BITMAP
03f0
0200
0200
0200
0200
0200
fe00
8000
8000
8000
8000
8000
ENDCHAR
STARTCHAR LRresizeLR
ENCODING 95
SWIDTH 96 0
DWIDTH 12 0
BBX 12 12 0 -12
BITMAP
0000
0010
0010
0010
0010
0010
0010
0010
0010
0010
0010
7ff0
ENDCHAR
STARTCHAR LRresizeFill
ENCODING 96
SWIDTH 96 0
DWIDTH 12 0
BBX 12 12 0 -12
BITMAP
0000
01e0
01e0
01e0
01e0
01e0
01e0
7fe0
7fe0
7fe0
7fe0
0000
ENDCHAR
STARTCHAR LLresizeUL
ENCODING 97
SWIDTH 96 0
DWIDTH 12 0
BBX 12 12 0 -12
BITMAP
f800
8000
8000
8000
8000
8000
87f0
8000
8000
8000
8000
8000
ENDCHAR
STARTCHAR LLresizeLR
ENCODING 98
SWIDTH 96 0
DWIDTH 12 0
BBX 12 12 0 -12
BITMAP
0000
0400
0400
0400
0400
0400
0000
0010
0010
0010
0010
7ff0
ENDCHAR
STARTCHAR LLresizeFill
ENCODING 99
SWIDTH 96 0
DWIDTH 12 0
BBX 12 12 0 -12
BITMAP
0000
7800
7800
7800
7800
7800
7800
7fe0
7fe0
7fe0
7fe0
0000
ENDCHAR
STARTCHAR PushPinOutTop
ENCODING 100
SWIDTH 96 0
DWIDTH 28 0
BBX 28 14 0 -14
BITMAP
0001c000
00010060
00010080
00011f80
00010080
00010080
07ff0080
00010080
00010080
00010080
00010000
10010000
10010000
60010000
ENDCHAR
STARTCHAR PushPinOutBot
ENCODING 101
SWIDTH 96 0
DWIDTH 28 0
BBX 28 14 0 -14
BITMAP
00000000
00002000
00002010
00002010
00002010
00002010
00002010
03fe2090
00003f90
00003ff0
600020f0
8000e060
8000e000
0000c000
ENDCHAR
STARTCHAR PushPinOutFill
ENCODING 102
SWIDTH 96 0
DWIDTH 28 0
BBX 28 14 0 -14
BITMAP
00000000
0000c000
0000c060
0000c060
0000df60
0000df60
0000df60
0000df60
0000df60
0000c060
0000c000
60000000
60000000
00000000
ENDCHAR
STARTCHAR PushPinInTop
ENCODING 103
SWIDTH 96 0
DWIDTH 15 0
BBX 15 15 0 -15
BITMAP
00e0
0710
1c00
2400
4800
4800
8800
8c00
8000
c000
4000
4000
4000
8000
0000
ENDCHAR
STARTCHAR PushPinInBottom
ENCODING 104
SWIDTH 96 0
DWIDTH 15 0
BBX 15 15 0 -15
BITMAP
0000
0008
0004
0004
0002
0002
0002
0006
0404
071c
03f8
20f8
3870
7fe0
c780
ENDCHAR
STARTCHAR PushPinInFill
ENCODING 105
SWIDTH 96 0
DWIDTH 15 0
BBX 15 15 0 -15
BITMAP
0000
00e0
03f8
1bf8
37fc
37fc
77fc
73f8
7bf8
38e0
3c00
1f00
0780
0000
0000
ENDCHAR
STARTCHAR DefButLeftEndCap
ENCODING 106
SWIDTH 96 0
DWIDTH 11 0
BBX 11 20 0 -20
BITMAP
0000
0000
00e0
0300
0400
0800
1000
1000
2000
2000
2000
2000
2000
1000
1000
0800
0400
0300
00e0
0000
ENDCHAR
STARTCHAR DefButRightEndCap
ENCODING 107
SWIDTH 96 0
DWIDTH 11 0
BBX 11 20 0 -20
BITMAP
0000
0000
e000
1800
0400
0200
0100
0100
0080
0080
0080
0080
0080
0100
0100
0200
0400
1800
e000
0000
ENDCHAR
STARTCHAR DefButMiddle-1
ENCODING 108
SWIDTH 96 0
DWIDTH 1 0
BBX 1 20 0 -20
BITMAP
00
00
80
00
00
00
00
00
00
00
00
00
00
00
00
00
00
00
80
00
ENDCHAR
STARTCHAR DefButMiddle-2
ENCODING 109
SWIDTH 96 0
DWIDTH 2 0
BBX 2 20 0 -20
BITMAP
00
00
c0
00
00
00
00
00
00
00
00
00
00
00
00
00
00
00
c0
00
ENDCHAR
STARTCHAR DefButMiddle-4
ENCODING 110
SWIDTH 96 0
DWIDTH 4 0
BBX 4 20 0 -20
BITMAP
00
00
f0
00
00
00
00
00
00
00
00
00
00
00
00
00
00
00
f0
00
ENDCHAR
STARTCHAR DefButMiddle-8
ENCODING 111
SWIDTH 96 0
DWIDTH 8 0
BBX 8 20 0 -20
BITMAP
00
00
ff
00
00
00
00
00
00
00
00
00
00
00
00
00
00
00
ff
00
ENDCHAR
STARTCHAR DefButMiddle-16
ENCODING 112
SWIDTH 96 0
DWIDTH 16 0
BBX 16 20 0 -20
BITMAP
0000
0000
ffff
0000
0000
0000
0000
0000
0000
0000
0000
0000
0000
0000
0000
0000
0000
0000
ffff
0000
ENDCHAR
STARTCHAR BaseOff-SpecialChar
ENCODING 113
SWIDTH 96 0
DWIDTH 11 0
BBX 1 7 0 -7
BITMAP
80
80
80
80
80
80
80
ENDCHAR
STARTCHAR UnCheckedBox-UL
ENCODING 114
SWIDTH 96 0
DWIDTH 19 0
BBX 19 17 0 -17
BITMAP
000000
000000
fffe00
800000
800000
800000
800000
800000
800000
800000
800000
800000
800000
800000
800000
800000
800000
ENDCHAR
STARTCHAR UnCheckedBox-LR
ENCODING 115
SWIDTH 96 0
DWIDTH 19 0
BBX 19 17 0 -17
BITMAP
000000
000000
000000
000200
000200
000200
000200
000200
000200
000200
000200
000200
000200
000200
000200
000200
7ffe00
ENDCHAR
STARTCHAR UnCheckedBoxFill
ENCODING 116
SWIDTH 96 0
DWIDTH 19 0
BBX 18 17 0 -17
BITMAP
000000
000000
000000
7ffc00
7ffc00
7ffc00
7ffc00
7ffc00
7ffc00
7ffc00
7ffc00
7ffc00
7ffc00
7ffc00
7ffc00
7ffc00
000000
ENDCHAR
STARTCHAR CheckMark
ENCODING 117
SWIDTH 96 0
DWIDTH 19 0
BBX 19 17 0 -17
BITMAP
000020
0000c0
000380
000700
000e00
001c00
083800
1c7800
3ef000
7fe000
3fe000
1fc000
0fc000
078000
038000
010000
000000
ENDCHAR
STARTCHAR CheckedBoxFill
ENCODING 118
SWIDTH 96 0
DWIDTH 19 0
BBX 21 18 0 -18
BITMAP
000000
000000
000c00
7ff800
7ff000
7fe200
77c600
638400
410c00
001c00
401c00
603c00
703c00
787c00
7c7c00
7efc00
000000
000000
ENDCHAR
STARTCHAR UnCheckedBoxOutline
ENCODING 119
SWIDTH 96 0
DWIDTH 19 0
BBX 19 17 0 -17
BITMAP
000000
000000
fffe00
800200
800200
800200
800200
800200
800200
800200
800200
800200
800200
800200
800200
800200
fffe00
ENDCHAR
STARTCHAR HorizGauge-UL
ENCODING 120
SWIDTH 96 0
DWIDTH 5 0
BBX 5 13 0 -13
BITMAP
08
30
40
40
80
80
80
80
80
40
40
00
00
ENDCHAR
STARTCHAR HorizGauge-LL
ENCODING 121
SWIDTH 96 0
DWIDTH 5 0
BBX 5 13 0 -13
BITMAP
00
00
00
00
00
00
00
00
00
00
00
30
08
ENDCHAR
STARTCHAR HorizGauge-UR
ENCODING 122
SWIDTH 96 0
DWIDTH 5 0
BBX 5 13 0 -13
BITMAP
80
60
00
00
00
00
00
00
00
00
00
00
00
ENDCHAR
STARTCHAR HorizGauge-LR
ENCODING 123
SWIDTH 96 0
DWIDTH 5 0
BBX 5 13 0 -13
BITMAP
00
00
10
10
08
08
08
08
08
10
10
60
80
ENDCHAR
STARTCHAR HorizGaugeMiddleBot-
ENCODING 124
SWIDTH 96 0
DWIDTH 1 0
BBX 1 13 0 -13
BITMAP
00
00
00
00
00
00
00
00
00
00
00
00
80
ENDCHAR
STARTCHAR HorizGaugeMiddleBot-
ENCODING 125
SWIDTH 96 0
DWIDTH 2 0
BBX 2 13 0 -13
BITMAP
00
00
00
00
00
00
00
00
00
00
00
00
c0
ENDCHAR
STARTCHAR HorizGaugeMiddleBot-
ENCODING 126
SWIDTH 96 0
DWIDTH 4 0
BBX 4 13 0 -13
BITMAP
00
00
00
00
00
00
00
00
00
00
00
00
f0
ENDCHAR
STARTCHAR HorizGaugeMiddleBot-
ENCODING 127
SWIDTH 96 0
DWIDTH 8 0
BBX 8 13 0 -13
BITMAP
00
00
00
00
00
00
00
00
00
00
00
00
ff
ENDCHAR
STARTCHAR HorizGaugeMiddleBot-
ENCODING 128
SWIDTH 96 0
DWIDTH 16 0
BBX 16 13 0 -13
BITMAP
0000
0000
0000
0000
0000
0000
0000
0000
0000
0000
0000
0000
ffff
ENDCHAR
STARTCHAR Vertgauge-UL
ENCODING 129
SWIDTH 96 0
DWIDTH 12 0
BBX 12 5 0 -5
BITMAP
0f80
3000
4000
4000
8000
ENDCHAR
STARTCHAR Vertgauge-UR
ENCODING 130
SWIDTH 96 0
DWIDTH 13 0
BBX 13 5 0 -5
BITMAP
0000
0060
0010
0010
0008
ENDCHAR
STARTCHAR VertGauge-LL
ENCODING 131
SWIDTH 96 0
DWIDTH 13 0
BBX 13 5 0 -5
BITMAP
8000
4000
4000
3000
0000
ENDCHAR
STARTCHAR VertGauge-LR
ENCODING 132
SWIDTH 96 0
DWIDTH 13 0
BBX 13 5 0 -5
BITMAP
0008
0010
0010
0060
0f80
ENDCHAR
STARTCHAR VertAbbreScrbaUL
ENCODING 133
SWIDTH 96 0
DWIDTH 17 0
BBX 17 36 0 -36
BITMAP
7fff00
800000
800000
800000
800000
800000
800000
800000
800000
800000
800000
800000
800000
800000
800000
800000
800000
800000
800000
800000
800000
800000
800000
800000
800000
800000
800000
800000
800000
800000
800000
800000
800000
800000
800000
000000
ENDCHAR
STARTCHAR VertAbbreScrbaLR
ENCODING 134
SWIDTH 96 0
DWIDTH 17 0
BBX 16 35 0 -35
BITMAP
0000
0001
0001
0001
0181
03c1
07e1
0ff1
1ff9
1ff9
0001
0001
0001
0001
0001
0001
0001
7fff
0001
0001
0001
0001
0001
0001
1ff9
1ff9
0ff1
07e1
03c1
0181
0001
0001
0001
0001
7fff
ENDCHAR
STARTCHAR Horiz-sb-rightbox-fi
ENCODING 135
SWIDTH 96 0
DWIDTH 18 0
BBX 18 16 0 -16
BITMAP
000000
7fff80
7fff80
7e7f80
7e3f80
7e1f80
7e0f80
7e0780
7e0780
7e0f80
7e1f80
7e3f80
7e7f80
7fff80
7fff80
000000
ENDCHAR
STARTCHAR HoriAbbScroBaUL
ENCODING 136
SWIDTH 96 0
DWIDTH 36 0
BBX 35 16 0 -16
BITMAP
7fffffffe0
8000000000
8000000000
8000000000
8000000000
8000000000
8000000000
8000000000
8000000000
8000000000
8000000000
8000000000
8000000000
8000000000
8000000000
8000000000
ENDCHAR
STARTCHAR HorizAbbScroBar-LR
ENCODING 137
SWIDTH 96 0
DWIDTH 36 0
BBX 35 16 0 -16
BITMAP
0000000000
0000400020
0000400020
00c040c020
01c040e020
03c040f020
07c040f820
0fc040fc20
0fc040fc20
07c040f820
03c040f020
01c040e020
00c040c020
0000400020
0000400020
7fffffffe0
ENDCHAR
STARTCHAR Horiz-sb-leftbox-fil
ENCODING 138
SWIDTH 96 0
DWIDTH 17 0
BBX 17 18 0 -18
BITMAP
800000
7fff80
7fff80
7f3f80
7e3f80
7c3f80
783f80
703f80
703f80
783f80
7c3f80
7e3f80
7f3f80
7fff80
7fff80
000000
800000
000000
ENDCHAR
STARTCHAR ButtonOutlLeftEndcap
ENCODING 139
SWIDTH 96 0
DWIDTH 11 0
BBX 11 22 0 -22
BITMAP
01e0
0600
0800
1000
2000
4000
4000
8000
8000
8000
8000
8000
8000
8000
4000
4000
2000
1000
0800
0600
03e0
01e0
ENDCHAR
STARTCHAR ButtonOutlRightEndCA
ENCODING 140
SWIDTH 96 0
DWIDTH 12 0
BBX 12 22 0 -22
BITMAP
f000
0c00
0200
0100
0080
0040
0060
0020
0030
0030
0030
0030
0030
0030
0070
0060
00e0
01c0
0380
0f00
fe00
f800
ENDCHAR
STARTCHAR ButtonOutlMiddle-1
ENCODING 141
SWIDTH 96 0
DWIDTH 1 0
BBX 1 22 0 -22
BITMAP
80
00
00
00
00
00
00
00
00
00
00
00
00
00
00
00
00
00
00
00
80
80
ENDCHAR
STARTCHAR ButtonOutlMiddle-2
ENCODING 142
SWIDTH 96 0
DWIDTH 2 0
BBX 2 22 0 -22
BITMAP
c0
00
00
00
00
00
00
00
00
00
00
00
00
00
00
00
00
00
00
00
c0
c0
ENDCHAR
STARTCHAR ButtonOutlMiddle-4
ENCODING 143
SWIDTH 96 0
DWIDTH 4 0
BBX 4 22 0 -22
BITMAP
f0
00
00
00
00
00
00
00
00
00
00
00
00
00
00
00
00
00
00
00
f0
f0
ENDCHAR
STARTCHAR ButtonOutlMiddle-8
ENCODING 144
SWIDTH 96 0
DWIDTH 8 0
BBX 8 22 0 -22
BITMAP
ff
00
00
00
00
00
00
00
00
00
00
00
00
00
00
00
00
00
00
00
ff
ff
ENDCHAR
STARTCHAR ButtonOutlMiddle-16
ENCODING 145
SWIDTH 96 0
DWIDTH 16 0
BBX 16 22 0 -22
BITMAP
ffff
0000
0000
0000
0000
0000
0000
0000
0000
0000
0000
0000
0000
0000
0000
0000
0000
0000
0000
0000
ffff
ffff
ENDCHAR
STARTCHAR ButtonOutlLeftEndcap
ENCODING 146
SWIDTH 96 0
DWIDTH 11 0
BBX 11 22 0 -22
BITMAP
0000
0000
00e0
03e0
07e0
0fe0
1fe0
1fe0
3fe0
3fe0
3fe0
3fe0
3fe0
1fe0
1fe0
0fe0
07e0
03e0
00e0
0000
0000
0000
ENDCHAR
STARTCHAR ButtonOutRighrEndCAp
ENCODING 147
SWIDTH 96 0
DWIDTH 11 0
BBX 11 22 0 -22
BITMAP
0000
0000
e000
f800
fc00
fe00
ff00
ff00
ff80
ff80
ff80
ff80
ff80
ff00
ff00
fe00
fc00
f800
e000
0000
0000
0000
ENDCHAR
STARTCHAR ButtonOutlMiddleFill
ENCODING 148
SWIDTH 96 0
DWIDTH 1 0
BBX 1 22 0 -22
BITMAP
00
00
80
80
80
80
80
80
80
80
80
80
80
80
80
80
80
80
80
00
00
00
ENDCHAR
STARTCHAR ButtonOutlMiddleFill
ENCODING 149
SWIDTH 96 0
DWIDTH 2 0
BBX 2 22 0 -22
BITMAP
00
00
c0
c0
c0
c0
c0
c0
c0
c0
c0
c0
c0
c0
c0
c0
c0
c0
c0
00
00
00
ENDCHAR
STARTCHAR ButtonOutlMiddleFill
ENCODING 150
SWIDTH 96 0
DWIDTH 4 0
BBX 4 22 0 -22
BITMAP
00
00
f0
f0
f0
f0
f0
f0
f0
f0
f0
f0
f0
f0
f0
f0
f0
f0
f0
00
00
00
ENDCHAR
STARTCHAR ButtonOutlMiddleFill
ENCODING 151
SWIDTH 96 0
DWIDTH 8 0
BBX 8 22 0 -22
BITMAP
00
00
ff
ff
ff
ff
ff
ff
ff
ff
ff
ff
ff
ff
ff
ff
ff
ff
ff
00
00
00
ENDCHAR
STARTCHAR ButtonOutlMiddleFill
ENCODING 152
SWIDTH 96 0
DWIDTH 16 0
BBX 16 22 0 -22
BITMAP
0000
0000
ffff
ffff
ffff
ffff
ffff
ffff
ffff
ffff
ffff
ffff
ffff
ffff
ffff
ffff
ffff
ffff
ffff
0000
0000
0000
ENDCHAR
STARTCHAR MenuDefltOutlLeftEnd
ENCODING 153
SWIDTH 96 0
DWIDTH 10 0
BBX 10 20 0 -20
BITMAP
01c0
0600
0800
1000
2000
4000
4000
8000
8000
8000
8000
8000
8000
4000
4000
2000
1000
0800
0600
01c0
ENDCHAR
STARTCHAR MenuDefltOutlRightEn
ENCODING 154
SWIDTH 96 0
DWIDTH 10 0
BBX 10 20 0 -20
BITMAP
e000
1800
0400
0200
0100
0080
0080
0040
0040
0040
0040
0040
0040
0080
0080
0100
0200
0400
1800
e000
ENDCHAR
STARTCHAR MenuDefltOutlMiddle-
ENCODING 155
SWIDTH 96 0
DWIDTH 1 0
BBX 1 20 0 -20
BITMAP
80
00
00
00
00
00
00
00
00
00
00
00
00
00
00
00
00
00
00
80
ENDCHAR
STARTCHAR MenuDefltOutlMiddle-
ENCODING 156
SWIDTH 96 0
DWIDTH 2 0
BBX 2 20 0 -20
BITMAP
c0
00
00
00
00
00
00
00
00
00
00
00
00
00
00
00
00
00
00
c0
ENDCHAR
STARTCHAR MenuDefltOutlMiddle-
ENCODING 157
SWIDTH 96 0
DWIDTH 4 0
BBX 4 20 0 -20
BITMAP
f0
00
00
00
00
00
00
00
00
00
00
00
00
00
00
00
00
00
00
f0
ENDCHAR
STARTCHAR MenuDefltOutlMiddle-
ENCODING 158
SWIDTH 96 0
DWIDTH 8 0
BBX 8 20 0 -20
BITMAP
ff
00
00
00
00
00
00
00
00
00
00
00
00
00
00
00
00
00
00
ff
ENDCHAR
STARTCHAR MenuDefltOutlMiddle-
ENCODING 159
SWIDTH 96 0
DWIDTH 16 0
BBX 16 20 0 -20
BITMAP
ffff
0000
0000
0000
0000
0000
0000
0000
0000
0000
0000
0000
0000
0000
0000
0000
0000
0000
0000
ffff
ENDCHAR
STARTCHAR ButtonSpecial-UL
ENCODING 160
SWIDTH 96 0
DWIDTH 7 0
BBX 7 7 0 -7
BITMAP
0e
30
40
40
80
80
80
ENDCHAR
STARTCHAR ButtonSpecial-LL`
ENCODING 161
SWIDTH 96 0
DWIDTH 6 0
BBX 7 7 0 -7
BITMAP
80
80
80
40
40
30
0e
ENDCHAR
STARTCHAR resizeOutl-UL
ENCODING 162
SWIDTH 96 0
DWIDTH 12 0
BBX 12 12 0 -12
BITMAP
fff0
8010
8010
8010
8010
87f0
8400
8400
8400
8400
8400
fc00
ENDCHAR
STARTCHAR resizeOutl-UR
ENCODING 163
SWIDTH 96 0
DWIDTH 12 0
BBX 12 12 0 -12
BITMAP
fff0
8010
8010
8010
8010
fe10
0210
0210
0210
0210
0210
03f0
ENDCHAR
STARTCHAR resizeOutl-LL
ENCODING 164
SWIDTH 96 0
DWIDTH 12 0
BBX 12 12 0 -12
BITMAP
03f0
0210
0210
0210
0210
0210
fe10
8010
8010
8010
8010
fff0
ENDCHAR
STARTCHAR resizeOutl-LR
ENCODING 165
SWIDTH 96 0
DWIDTH 12 0
BBX 12 12 0 -12
BITMAP
fc00
8400
8400
8400
8400
8400
87f0
8010
8010
8010
8010
fff0
ENDCHAR
STARTCHAR VerticalScrollbarEle
ENCODING 166
SWIDTH 96 0
DWIDTH 17 0
BBX 17 53 0 -53
BITMAP
7fff00
800180
800180
800180
800180
810180
828180
854180
8aa180
955180
8aa180
800180
800180
800180
800180
800180
800180
ffff80
800180
800180
800180
800180
800180
800180
800180
800180
800180
800180
800180
800180
800180
800180
800180
800180
ffff80
800180
800180
800180
800180
800180
800180
9ff980
9ff980
8ff180
87e180
83c180
818180
800180
800180
800180
800180
ffff80
7fff00
ENDCHAR
STARTCHAR VerticalScrollbarEle
ENCODING 167
SWIDTH 96 0
DWIDTH 17 0
BBX 17 53 0 -53
BITMAP
7fff00
800180
800180
800180
800180
818180
83c180
87e180
8ff180
9ff980
9ff980
800180
800180
800180
800180
800180
800180
ffff80
800180
800180
800180
800180
800180
800180
800180
800180
800180
800180
800180
800180
800180
800180
800180
800180
ffff80
800180
800180
800180
800180
800180
800180
8aa180
955180
8aa180
854180
828180
810180
800180
800180
800180
800180
ffff80
7fff00
ENDCHAR
STARTCHAR VerticalScrollbarEle
ENCODING 168
SWIDTH 96 0
DWIDTH 17 0
BBX 17 53 0 -53
BITMAP
7fff00
800180
800180
800180
800180
810180
828180
854180
8aa180
955180
8aa180
800180
800180
800180
800180
800180
800180
ffff80
800180
800180
800180
800180
800180
800180
800180
800180
800180
800180
800180
800180
800180
800180
800180
800180
ffff80
800180
800180
800180
800180
800180
800180
8aa180
955180
8aa180
854180
828180
810180
800180
800180
800180
800180
ffff80
7fff00
ENDCHAR
STARTCHAR HorizontalScrollbarE
ENCODING 169
SWIDTH 96 0
DWIDTH 53 0
BBX 53 17 0 -17
BITMAP
7ffffffffffff0
80004000200018
80004000200018
80004000206018
80404000207018
80a04000207818
81404000207c18
82a04000207e18
85404000207e18
82a04000207c18
81404000207818
80a04000207018
80404000206018
80004000200018
80004000200018
fffffffffffff8
7ffffffffffff0
ENDCHAR
STARTCHAR HorizontalScrollbarE
ENCODING 170
SWIDTH 96 0
DWIDTH 53 0
BBX 53 17 0 -17
BITMAP
7ffffffffffff0
80004000200018
80004000200018
80604000202018
80e04000205018
81e04000202818
83e04000205418
87e04000202a18
87e04000205418
83e04000202818
81e04000205018
80e04000202018
80604000200018
80004000200018
80004000200018
fffffffffffff8
7ffffffffffff0
ENDCHAR
STARTCHAR HorizontalScrollbarE
ENCODING 171
SWIDTH 96 0
DWIDTH 53 0
BBX 53 17 0 -17
BITMAP
7ffffffffffff0
80004000200018
80004000200018
80004000202018
80404000205018
80a04000202818
81404000205418
82a04000202a18
85404000205418
82a04000202818
81404000205018
80a04000202018
80404000200018
80004000200018
80004000200018
fffffffffffff8
7ffffffffffff0
ENDCHAR
STARTCHAR HorizSliderControl-O
ENCODING 172
SWIDTH 96 0
DWIDTH 12 0
BBX 12 17 0 -17
BITMAP
7fe0
8030
8030
8030
8030
8030
8030
8030
8030
8030
8030
8030
8030
8030
8030
fff0
7fe0
ENDCHAR
STARTCHAR HorizSliderLeftEndca
ENCODING 173
SWIDTH 96 0
DWIDTH 3 0
BBX 3 6 0 -6
BITMAP
60
80
80
80
80
60
ENDCHAR
STARTCHAR HorizSliderRightEndc
ENCODING 174
SWIDTH 96 0
DWIDTH 3 0
BBX 3 6 0 -6
BITMAP
c0
20
20
20
20
c0
ENDCHAR
STARTCHAR HorizSliderMiddle-1
ENCODING 175
SWIDTH 96 0
DWIDTH 1 0
BBX 1 6 0 -6
BITMAP
80
00
00
00
00
80
ENDCHAR
STARTCHAR HorizSliderMiddle-2
ENCODING 176
SWIDTH 96 0
DWIDTH 2 0
BBX 2 6 0 -6
BITMAP
c0
00
00
00
00
c0
ENDCHAR
STARTCHAR HorizSliderMiddle-4
ENCODING 177
SWIDTH 96 0
DWIDTH 4 0
BBX 4 6 0 -6
BITMAP
f0
00
00
00
00
f0
ENDCHAR
STARTCHAR HorizSliderMiddle-8
ENCODING 178
SWIDTH 96 0
DWIDTH 8 0
BBX 8 6 0 -6
BITMAP
ff
00
00
00
00
ff
ENDCHAR
STARTCHAR HorizSliderMiddle-16
ENCODING 179
SWIDTH 96 0
DWIDTH 16 0
BBX 16 6 0 -6
BITMAP
ffff
0000
0000
0000
0000
ffff
ENDCHAR
STARTCHAR VertSliderTopEndcap
ENCODING 180
SWIDTH 96 0
DWIDTH 6 0
BBX 6 3 0 -3
BITMAP
78
84
84
ENDCHAR
STARTCHAR VertSliderBottomEndc
ENCODING 181
SWIDTH 96 0
DWIDTH 6 0
BBX 6 3 0 -3
BITMAP
84
84
78
ENDCHAR
STARTCHAR VertSliderContr-Outl
ENCODING 182
SWIDTH 96 0
DWIDTH 17 0
BBX 17 12 0 -12
BITMAP
7fff00
800180
800180
800180
800180
800180
800180
800180
800180
800180
ffff80
7fff00
ENDCHAR
STARTCHAR PushPinOutDefTop
ENCODING 183
SWIDTH 96 0
DWIDTH 27 0
BBX 27 15 0 -15
BITMAP
0001c000
00010060
00010080
00011f80
00010080
00010080
07ff0080
00010080
00010080
3c010080
40010000
80010000
84010000
84010000
98000000
ENDCHAR
STARTCHAR PushPinDefBot
ENCODING 184
SWIDTH 96 0
DWIDTH 28 0
BBX 28 17 0 -17
BITMAP
00000000
00002000
00002010
00002010
00002010
00002010
00002010
03fe2090
00003f90
00003ff0
020020f0
1900e060
2100e000
2100c000
01000000
02000000
3c000000
ENDCHAR
STARTCHAR PushPinDefFill
ENCODING 185
SWIDTH 96 0
DWIDTH 27 0
BBX 27 14 0 -14
BITMAP
00000000
0000c000
0000c060
0000c060
0000df60
0000df60
0000df60
0000df60
0000df60
0000c060
0000c000
00000000
18000000
18000000
ENDCHAR
STARTCHAR Horiz-leftendcap-Out
ENCODING 186
SWIDTH 96 0
DWIDTH 5 0
BBX 5 13 0 -13
BITMAP
08
30
40
40
80
80
80
80
80
40
40
30
08
ENDCHAR
STARTCHAR Horiz-lrightendcap-o
ENCODING 187
SWIDTH 96 0
DWIDTH 5 0
BBX 5 13 0 -13
BITMAP
80
60
10
10
08
08
08
08
08
10
10
60
80
ENDCHAR
STARTCHAR HorizMiddleOutl-1
ENCODING 188
SWIDTH 96 0
DWIDTH 1 0
BBX 1 13 0 -13
BITMAP
80
00
00
00
00
00
00
00
00
00
00
00
80
ENDCHAR
STARTCHAR HorizMiddleOutl-2
ENCODING 189
SWIDTH 96 0
DWIDTH 2 0
BBX 2 13 0 -13
BITMAP
c0
00
00
00
00
00
00
00
00
00
00
00
c0
ENDCHAR
STARTCHAR HorizMiddleOutl-4
ENCODING 190
SWIDTH 96 0
DWIDTH 4 0
BBX 4 13 0 -13
BITMAP
f0
00
00
00
00
00
00
00
00
00
00
00
f0
ENDCHAR
STARTCHAR HorizMiddleOutl-8
ENCODING 191
SWIDTH 96 0
DWIDTH 8 0
BBX 8 13 0 -13
BITMAP
ff
00
00
00
00
00
00
00
00
00
00
00
ff
ENDCHAR
STARTCHAR HorizMiddleOutl-16
ENCODING 192
SWIDTH 96 0
DWIDTH 16 0
BBX 16 13 0 -13
BITMAP
ffff
0000
0000
0000
0000
0000
0000
0000
0000
0000
0000
0000
ffff
ENDCHAR
STARTCHAR CheckBoxClean
ENCODING 193
SWIDTH 96 0
DWIDTH 19 0
BBX 19 17 0 -17
BITMAP
ffffe0
ffffe0
0001e0
0001e0
0001e0
0001e0
0001e0
0001e0
0001e0
0001e0
0001e0
0001e0
0001e0
0001e0
0001e0
0001e0
0001e0
ENDCHAR
STARTCHAR Vertsb-box-UL
ENCODING 194
SWIDTH 96 0
DWIDTH 16 0
BBX 16 18 0 -18
BITMAP
7fff
8000
8000
8000
8000
8000
8000
8000
8000
8000
8000
8000
8000
8000
8000
8000
8000
8000
ENDCHAR
STARTCHAR VertSb-UL
ENCODING 195
SWIDTH 96 0
DWIDTH 16 0
BBX 16 18 0 -18
BITMAP
0000
0001
0001
0001
0001
0001
0001
0001
0001
0001
0001
0001
0001
0001
0001
0001
0001
7fff
ENDCHAR
STARTCHAR Dimple.UL
ENCODING 196
SWIDTH 96 0
DWIDTH 10 0
BBX 10 12 0 -12
BITMAP
0000
0000
0000
0000
0000
03c0
0600
0c00
0800
0c00
0600
0380
ENDCHAR
STARTCHAR Dimple.UL
ENCODING 197
SWIDTH 96 0
DWIDTH 12 0
BBX 12 12 0 -12
BITMAP
0000
0000
0000
0000
0000
0000
0060
0030
0010
0030
0060
0040
ENDCHAR
STARTCHAR Dimple.UL
ENCODING 198
SWIDTH 96 0
DWIDTH 11 0
BBX 11 11 0 -11
BITMAP
0000
0000
0000
0000
0000
0000
0180
03c0
07e0
03c0
0180
ENDCHAR
STARTCHAR SldierOffset_SpecCha
ENCODING 199
SWIDTH 96 0
DWIDTH 5 0
BBX 5 1 0 -1
BITMAP
f8
ENDCHAR
STARTCHAR Horz-sb-box-ul
ENCODING 200
SWIDTH 96 0
DWIDTH 18 0
BBX 18 16 0 -16
BITMAP
7fffc0
800000
800000
800000
800000
800000
800000
800000
800000
800000
800000
800000
800000
800000
800000
800000
ENDCHAR
STARTCHAR Horz-sb-box-LR
ENCODING 201
SWIDTH 96 0
DWIDTH 18 0
BBX 18 16 0 -16
BITMAP
000040
000040
000040
000040
000040
000040
000040
000040
000040
000040
000040
000040
000040
000040
000040
7fffc0
ENDCHAR
STARTCHAR VertMenuMarkBack_UL
ENCODING 202
SWIDTH 96 0
DWIDTH 0 0
BBX 11 11 0 -11
BITMAP
0400
0800
0800
1000
1000
2000
2000
4000
4000
8000
8000
ENDCHAR
STARTCHAR VertMEnuMarkBack-LR
ENCODING 203
SWIDTH 96 0
DWIDTH 0 0
BBX 11 11 0 -11
BITMAP
0000
0200
0200
0100
0100
0080
0080
0040
0040
0020
7fe0
ENDCHAR
STARTCHAR VertMenuMarkBack-Fil
ENCODING 204
SWIDTH 96 0
DWIDTH 11 0
BBX 11 11 0 -11
BITMAP
0000
0400
0400
0e00
0e00
1f00
1f00
3f80
3f80
7fc0
0000
ENDCHAR
STARTCHAR Horixmenumarkback-ul
ENCODING 205
SWIDTH 96 0
DWIDTH 0 0
BBX 11 6 0 -6
BITMAP
0060
0180
0600
1800
6000
8000
ENDCHAR
STARTCHAR Horizmenumarkback-lr
ENCODING 206
SWIDTH 96 0
DWIDTH 0 0
BBX 11 11 0 -11
BITMAP
0000
0020
0020
0020
0020
0020
6020
1820
0620
01a0
0060
ENDCHAR
STARTCHAR Horizmenumarkback-fi
ENCODING 207
SWIDTH 96 0
DWIDTH 12 0
BBX 12 11 0 -11
BITMAP
0000
0040
01c0
07c0
1fc0
7fc0
1fc0
07c0
01c0
0040
0000
ENDCHAR
STARTCHAR ActiveCaret
ENCODING 208
SWIDTH 96 0
DWIDTH 7 0
BBX 7 7 0 -5
BITMAP
10
10
38
38
7c
7c
fe
ENDCHAR
STARTCHAR InactiveCaret
ENCODING 209
SWIDTH 96 0
DWIDTH 7 0
BBX 7 7 0 -5
BITMAP
10
28
54
aa
54
28
10
ENDCHAR
STARTCHAR VertGaugeTopEndcap-o
ENCODING 210
SWIDTH 96 0
DWIDTH 13 0
BBX 13 5 0 -5
BITMAP
0f80
3060
4010
4010
8008
ENDCHAR
STARTCHAR VertGAugeBotEndcap-o
ENCODING 211
SWIDTH 96 0
DWIDTH 13 0
BBX 13 5 0 -5
BITMAP
8008
4010
4010
3060
0f80
ENDCHAR
STARTCHAR ButtonSpec-UR
ENCODING 212
SWIDTH 96 0
DWIDTH 7 0
BBX 7 7 0 -7
BITMAP
e0
18
04
04
02
02
02
ENDCHAR
STARTCHAR ButtonSpec-LR
ENCODING 213
SWIDTH 96 0
DWIDTH 7 0
BBX 7 7 0 -7
BITMAP
02
02
02
04
04
18
e0
ENDCHAR
STARTCHAR ButtonSpec-2D-LR
ENCODING 214
SWIDTH 96 0
DWIDTH 7 0
BBX 8 8 0 -8
BITMAP
03
03
03
06
06
1c
f8
e0
ENDCHAR
STARTCHAR ButtonSpecialDef-UL
ENCODING 215
SWIDTH 96 0
DWIDTH 7 0
BBX 7 7 0 -7
BITMAP
00
00
00
06
08
10
10
ENDCHAR
STARTCHAR ButtonSpecialDef-LL
ENCODING 216
SWIDTH 96 0
DWIDTH 7 0
BBX 7 4 0 -4
BITMAP
10
10
08
06
ENDCHAR
STARTCHAR ButtonSpecDef-UR
ENCODING 217
SWIDTH 96 0
DWIDTH 4 0
BBX 4 7 0 -7
BITMAP
00
00
00
c0
20
10
10
ENDCHAR
STARTCHAR ButtonSpecDef-LR
ENCODING 218
SWIDTH 96 0
DWIDTH 4 0
BBX 4 4 0 -4
BITMAP
10
10
20
c0
ENDCHAR
STARTCHAR HorizGauge-LeftEnd-F
ENCODING 219
SWIDTH 96 0
DWIDTH 5 0
BBX 5 13 0 -13
BITMAP
00
08
38
38
78
78
78
78
78
38
38
08
00
ENDCHAR
STARTCHAR HorizGaugeMiddleFill
ENCODING 220
SWIDTH 96 0
DWIDTH 1 0
BBX 1 13 0 -13
BITMAP
00
80
80
80
80
80
80
80
80
80
80
80
00
ENDCHAR
STARTCHAR HorizGaugeMiddleFill
ENCODING 221
SWIDTH 96 0
DWIDTH 2 0
BBX 2 13 0 -13
BITMAP
00
c0
c0
c0
c0
c0
c0
c0
c0
c0
c0
c0
00
ENDCHAR
STARTCHAR HorizGaugeMiddleFill
ENCODING 222
SWIDTH 96 0
DWIDTH 4 0
BBX 4 13 0 -13
BITMAP
00
f0
f0
f0
f0
f0
f0
f0
f0
f0
f0
f0
00
ENDCHAR
STARTCHAR HorizGaugeMiddleFill
ENCODING 223
SWIDTH 96 0
DWIDTH 8 0
BBX 8 13 0 -13
BITMAP
00
ff
ff
ff
ff
ff
ff
ff
ff
ff
ff
ff
00
ENDCHAR
STARTCHAR HorizGaugeMiddleFill
ENCODING 224
SWIDTH 96 0
DWIDTH 16 0
BBX 16 13 0 -13
BITMAP
0000
ffff
ffff
ffff
ffff
ffff
ffff
ffff
ffff
ffff
ffff
ffff
0000
ENDCHAR
STARTCHAR HorizGaugeRightEnd-F
ENCODING 225
SWIDTH 96 0
DWIDTH 5 0
BBX 5 13 0 -13
BITMAP
00
80
e0
e0
f0
f0
f0
f0
f0
e0
e0
80
00
ENDCHAR
STARTCHAR VertGaugeTopEndFill
ENCODING 226
SWIDTH 96 0
DWIDTH 13 0
BBX 13 5 0 -5
BITMAP
0000
0f80
3fe0
3fe0
7ff0
ENDCHAR
STARTCHAR VertGaugeBotEndFill
ENCODING 227
SWIDTH 96 0
DWIDTH 13 0
BBX 13 5 0 -5
BITMAP
7ff0
3fe0
3fe0
0f80
0000
ENDCHAR
STARTCHAR TextScrollLeft
ENCODING 228
SWIDTH 96 0
DWIDTH 17 0
BBX 17 17 0 -17
BITMAP
7ffe00
800100
800180
806180
80e180
81e180
83e180
87e180
87e180
83e180
81e180
80e180
806180
800180
800180
7fff80
3fff00
ENDCHAR
STARTCHAR TextScrollRight
ENCODING 229
SWIDTH 96 0
DWIDTH 17 0
BBX 17 17 0 -17
BITMAP
7ffe00
800100
800180
860180
870180
878180
87c180
87e180
87e180
87c180
878180
870180
860180
800180
800180
7fff80
3fff00
ENDCHAR
STARTCHAR TextScrollLeft
ENCODING 230
SWIDTH 96 0
DWIDTH 17 0
BBX 17 17 0 -17
BITMAP
7ffe00
800100
bffd80
bf9d80
bf1d80
be1d80
bc1d80
b81d80
b81d80
bc1d80
be1d80
bf1d80
bf9d80
bffd80
800180
7fff80
3fff00
ENDCHAR
STARTCHAR TextScrollRight
ENCODING 231
SWIDTH 96 0
DWIDTH 17 0
BBX 17 17 0 -17
BITMAP
7ffe00
800100
bffd80
b9fd80
b8fd80
b87d80
b83d80
b81d80
b81d80
b83d80
b87d80
b8fd80
b9fd80
bffd80
800180
7fff80
3fff00
ENDCHAR
STARTCHAR NumericScrollNormal
ENCODING 232
SWIDTH 96 0
DWIDTH 32 0
BBX 32 17 0 -17
BITMAP
7ffffffc
80010002
80010003
80010003
80010003
81813ff3
83c13ff3
87e11fe3
8ff10fc3
9ff90783
9ff90303
80010003
80010003
80010003
80010003
7fffffff
3ffffffe
ENDCHAR
STARTCHAR NumericScrollLeftInv
ENCODING 233
SWIDTH 96 0
DWIDTH 32 0
BBX 32 17 0 -17
BITMAP
7ffffffc
80010002
bffd0003
bffd0003
bffd0003
be7d3ff3
bc3d3ff3
b81d1fe3
b00d0fc3
a0050783
a0050303
bffd0003
bffd0003
bffd0003
80010003
7fffffff
3ffffffe
ENDCHAR
STARTCHAR NumericScrollRightInv
ENCODING 234
SWIDTH 96 0
DWIDTH 32 0
BBX 32 17 0 -17
BITMAP
7ffffffc
80010002
80017ffb
80017ffb
80017ffb
8181400b
83c1400b
87e1601b
8ff1703b
9ff9787b
9ff97cfb
80017ffb
80017ffb
80017ffb
80010003
7fffffff
3ffffffe
ENDCHAR
ENDFONT
